#!OML:ASF H:\Martial Arts Walks\Project 1\Capture day 1\Session 1\male.ASF
:FULLY-SPECIFIED
:DEGREES
2153
root 0.576202 17.0406 -50.3861 5.14532 -1.67199 -2.21988
lowerback 5.38969 -0.400288 -6.0032
upperback -2.38685 -0.869148 2.48619
thorax -5.40553 -0.1687 6.0841
lowerneck -0.843872 -13.9942 -15.3717
upperneck 26.6716 -21.0282 9.48843
head 11.5206 -10.4129 3.38963
rclavicle -8.46931e-015 -3.65267e-015
rhumerus -37.4927 14.0723 -83.3152
rradius 41.499
rwrist -2.07202
rhand -9.90004 -19.3789
rfingers 7.12502
rthumb 16.0799 -48.7317
lclavicle -8.46931e-015 -3.65267e-015
lhumerus -27.8437 -4.66644 90.11
lradius 26.6329
lwrist -28.8936
lhand -18.6235 23.8566
lfingers 7.12502
lthumb 7.66852 -306.302
rfemur -19.3905 8.54774 11.3228
rtibia 35.428
rfoot -12.6591 -11.7786
rtoes -14.2831
lfemur -10.2101 -3.40302 -13.8594
ltibia 30.1313
lfoot -13.525 18.5298
ltoes -10.9508
2154
root 0.57616 17.0397 -50.3869 5.12678 -1.67402 -2.20132
lowerback 5.4088 -0.408882 -6.02173
upperback -2.36626 -0.881468 2.51379
thorax -5.39239 -0.174688 6.12538
lowerneck -0.848452 -13.9499 -15.2963
upperneck 27.1415 -20.971 9.27782
head 11.6617 -10.3935 3.3109
rclavicle -2.51377e-014 2.44257e-014
rhumerus -37.5139 13.9552 -83.1611
rradius 41.804
rwrist -2.1303
rhand -9.92803 -19.3869
rfingers 7.12502
rthumb 16.053 -48.7419
lclavicle -2.51377e-014 2.44257e-014
lhumerus -27.8733 -4.72863 90.1381
lradius 26.6948
lwrist -28.8095
lhand -18.628 23.8925
lfingers 7.12502
lthumb 7.66417 -306.266
rfemur -19.3909 8.53553 11.3043
rtibia 35.4599
rfoot -12.6753 -11.7682
rtoes -14.2786
lfemur -10.2006 -3.38043 -13.8788
ltibia 30.1432
lfoot -13.5289 18.5122
ltoes -10.9765
2155
root 0.576236 17.039 -50.3877 5.11257 -1.68015 -2.17863
lowerback 5.4346 -0.415802 -6.04061
upperback -2.34893 -0.892128 2.53897
thorax -5.38679 -0.179509 6.16438
lowerneck -0.867967 -13.9052 -15.2268
upperneck 27.6209 -20.9123 9.07111
head 11.8121 -10.373 3.23278
rclavicle -1.71265e-014 6.55989e-015
rhumerus -37.5263 13.8496 -83.009
rradius 42.0719
rwrist -2.1936
rhand -9.97764 -19.3768
rfingers 7.12502
rthumb 16.0052 -48.7357
lclavicle -1.71265e-014 6.55989e-015
lhumerus -27.8998 -4.78872 90.1614
lradius 26.7478
lwrist -28.7247
lhand -18.6428 23.8959
lfingers 7.12502
lthumb 7.64991 -306.262
rfemur -19.3988 8.5279 11.28
rtibia 35.495
rfoot -12.6895 -11.7619
rtoes -14.2706
lfemur -10.1936 -3.3584 -13.9037
ltibia 30.1519
lfoot -13.5272 18.4987
ltoes -11.0005
2156
root 0.576421 17.0383 -50.3889 5.09897 -1.68571 -2.15454
lowerback 5.4595 -0.425458 -6.06428
upperback -2.33041 -0.906547 2.56849
thorax -5.37874 -0.186077 6.21109
lowerneck -0.880779 -13.855 -15.1764
upperneck 28.0924 -20.8471 8.8789
head 11.963 -10.3506 3.16368
rclavicle 1.57009e-015 -4.12478e-015
rhumerus -37.5339 13.7556 -82.8562
rradius 42.3021
rwrist -2.24597
rhand -10.0479 -19.3475
rfingers 7.12502
rthumb 15.9375 -48.7118
lclavicle 1.57009e-015 -4.12478e-015
lhumerus -27.9278 -4.84037 90.1848
lradius 26.8017
lwrist -28.6415
lhand -18.658 23.8751
lfingers 7.12502
lthumb 7.63524 -306.283
rfemur -19.409 8.52048 11.2537
rtibia 35.5314
rfoot -12.7009 -11.756
rtoes -14.272
lfemur -10.1871 -3.34142 -13.9313
ltibia 30.1591
lfoot -13.5273 18.4881
ltoes -11.0078
2157
root 0.576771 17.0377 -50.3901 5.08783 -1.69191 -2.1302
lowerback 5.48766 -0.437876 -6.08731
upperback -2.30972 -0.924631 2.60102
thorax -5.36962 -0.194543 6.26105
lowerneck -0.912331 -13.8047 -15.1385
upperneck 28.5638 -20.7792 8.69314
head 12.1213 -10.327 3.09699
rclavicle 2.88238e-015 -9.0944e-015
rhumerus -37.5322 13.6743 -82.7035
rradius 42.4982
rwrist -2.29269
rhand -10.1345 -19.2816
rfingers 7.12502
rthumb 15.8541 -48.6525
lclavicle 2.88238e-015 -9.0944e-015
lhumerus -27.9478 -4.88251 90.2051
lradius 26.8514
lwrist -28.5597
lhand -18.6748 23.8404
lfingers 7.12502
lthumb 7.61909 -306.317
rfemur -19.4224 8.51036 11.2264
rtibia 35.5671
rfoot -12.7082 -11.7526
rtoes -14.2916
lfemur -10.1831 -3.3291 -13.9603
ltibia 30.166
lfoot -13.5258 18.4821
ltoes -11.0043
2158
root 0.577249 17.0372 -50.3914 5.079 -1.69826 -2.10939
lowerback 5.5194 -0.453475 -6.10425
upperback -2.2865 -0.946544 2.63625
thorax -5.35925 -0.205209 6.31083
lowerneck -0.952504 -13.7556 -15.1075
upperneck 29.0213 -20.7103 8.51278
head 12.2789 -10.3032 3.03231
rclavicle 4.00675e-015 2.48481e-015
rhumerus -37.5154 13.6052 -82.5529
rradius 42.6548
rwrist -2.33654
rhand -10.2262 -19.1809
rfingers 7.12502
rthumb 15.7658 -48.5588
lclavicle 4.00675e-015 2.48481e-015
lhumerus -27.9679 -4.91869 90.2216
lradius 26.9101
lwrist -28.482
lhand -18.6835 23.802
lfingers 7.12502
lthumb 7.61061 -306.355
rfemur -19.4379 8.49993 11.2025
rtibia 35.6012
rfoot -12.7122 -11.7478
rtoes -14.3244
lfemur -10.1823 -3.31998 -13.9862
ltibia 30.1736
lfoot -13.5245 18.4781
ltoes -10.9924
2159
root 0.57781 17.0367 -50.3931 5.06754 -1.69968 -2.08896
lowerback 5.54927 -0.473633 -6.12194
upperback -2.25639 -0.974228 2.67558
thorax -5.33952 -0.219223 6.36581
lowerneck -0.995645 -13.7067 -15.0858
upperneck 29.453 -20.6389 8.3419
head 12.4301 -10.2786 2.97234
rclavicle 1.06785e-014 -2.08724e-015
rhumerus -37.482 13.5514 -82.4003
rradius 42.778
rwrist -2.39479
rhand -10.3038 -19.0773
rfingers 7.12502
rthumb 15.6911 -48.4611
lclavicle 1.06785e-014 -2.08724e-015
lhumerus -27.9859 -4.94919 90.2378
lradius 26.979
lwrist -28.4087
lhand -18.6868 23.7683
lfingers 7.12502
lthumb 7.60745 -306.388
rfemur -19.4495 8.48113 11.1798
rtibia 35.6329
rfoot -12.7153 -11.7391
rtoes -14.3619
lfemur -10.1807 -3.31627 -14.012
ltibia 30.1815
lfoot -13.524 18.4746
ltoes -10.9707
2160
root 0.578426 17.0363 -50.3948 5.05657 -1.70043 -2.06776
lowerback 5.57953 -0.495142 -6.13561
upperback -2.21753 -1.00335 2.71431
thorax -5.3105 -0.234756 6.41782
lowerneck -1.06183 -13.665 -15.0628
upperneck 29.8615 -20.5728 8.17639
head 12.5793 -10.2552 2.91113
rclavicle -6.06914e-015 -3.57812e-015
rhumerus -37.4376 13.5064 -82.2483
rradius 42.8882
rwrist -2.47274
rhand -10.3431 -19.0345
rfingers 7.12502
rthumb 15.6532 -48.4213
lclavicle -6.06914e-015 -3.57812e-015
lhumerus -27.9841 -4.9758 90.2492
lradius 27.0433
lwrist -28.3456
lhand -18.6915 23.7461
lfingers 7.12502
lthumb 7.60293 -306.411
rfemur -19.4613 8.45777 11.156
rtibia 35.6631
rfoot -12.7176 -11.7279
rtoes -14.4042
lfemur -10.1803 -3.31158 -14.0388
ltibia 30.1892
lfoot -13.5195 18.4706
ltoes -10.9716
2161
root 0.579079 17.0359 -50.3967 5.04765 -1.70078 -2.04665
lowerback 5.60852 -0.514905 -6.14104
upperback -2.17005 -1.0295 2.74935
thorax -5.27217 -0.249817 6.46066
lowerneck -1.14984 -13.6361 -15.0324
upperneck 30.2434 -20.5205 8.01476
head 12.7245 -10.2361 2.84594
rclavicle -2.09345e-015 6.55989e-015
rhumerus -37.3838 13.4574 -82.0964
rradius 42.9837
rwrist -2.56727
rhand -10.3513 -19.065
rfingers 7.12502
rthumb 15.6453 -48.4524
lclavicle -2.09345e-015 6.55989e-015
lhumerus -27.9612 -5.00737 90.2546
lradius 27.102
lwrist -28.2957
lhand -18.7002 23.7386
lfingers 7.12502
lthumb 7.59454 -306.418
rfemur -19.4754 8.43235 11.1321
rtibia 35.6926
rfoot -12.7211 -11.7138
rtoes -14.4344
lfemur -10.1824 -3.30588 -14.065
ltibia 30.1957
lfoot -13.5149 18.4659
ltoes -10.9807
2162
root 0.579681 17.0354 -50.3986 5.04016 -1.7058 -2.02439
lowerback 5.63584 -0.53142 -6.14612
upperback -2.11908 -1.05125 2.78222
thorax -5.22989 -0.263033 6.50044
lowerneck -1.22497 -13.6132 -15.004
upperneck 30.5825 -20.4775 7.86993
head 12.8543 -10.2209 2.78671
rclavicle -1.21445e-014 2.29596e-014
rhumerus -37.3358 13.4083 -81.9462
rradius 43.0605
rwrist -2.659
rhand -10.3337 -19.1418
rfingers 7.12502
rthumb 15.6622 -48.5278
lclavicle -1.21445e-014 2.29596e-014
lhumerus -27.9246 -5.03761 90.2561
lradius 27.1473
lwrist -28.2614
lhand -18.7177 23.7439
lfingers 7.12502
lthumb 7.57765 -306.412
rfemur -19.4937 8.40966 11.1062
rtibia 35.7224
rfoot -12.7255 -11.6989
rtoes -14.4638
lfemur -10.1838 -3.29688 -14.0924
ltibia 30.2001
lfoot -13.5126 18.4638
ltoes -10.9931
2163
root 0.580319 17.035 -50.4005 5.03759 -1.71078 -1.99935
lowerback 5.6556 -0.545598 -6.1504
upperback -2.06706 -1.06955 2.81191
thorax -5.18276 -0.274869 6.53579
lowerneck -1.29387 -13.5988 -14.9794
upperneck 30.8915 -20.4468 7.73707
head 12.9749 -10.211 2.73069
rclavicle -7.81472e-015 1.0138e-014
rhumerus -37.2936 13.3645 -81.7978
rradius 43.1104
rwrist -2.74111
rhand -10.3182 -19.216
rfingers 7.12502
rthumb 15.6772 -48.6009
lclavicle -7.81472e-015 1.0138e-014
lhumerus -27.869 -5.06226 90.2533
lradius 27.1649
lwrist -28.2465
lhand -18.7437 23.7534
lfingers 7.12502
lthumb 7.55255 -306.401
rfemur -19.518 8.38862 11.076
rtibia 35.7529
rfoot -12.7324 -11.6839
rtoes -14.4806
lfemur -10.1899 -3.28631 -14.1222
ltibia 30.2022
lfoot -13.505 18.4601
ltoes -11.014
2164
root 0.580904 17.0346 -50.4025 5.03883 -1.71745 -1.97286
lowerback 5.67078 -0.561067 -6.16351
upperback -2.02483 -1.09001 2.84467
thorax -5.14289 -0.286871 6.57981
lowerneck -1.32114 -13.5829 -14.9699
upperneck 31.1687 -20.4166 7.61454
head 13.078 -10.2044 2.68394
rclavicle -2.38417e-014 5.1684e-015
rhumerus -37.2801 13.3405 -81.6572
rradius 43.1328
rwrist -2.80638
rhand -10.3149 -19.2529
rfingers 7.12502
rthumb 15.6804 -48.6375
lclavicle -2.38417e-014 5.1684e-015
lhumerus -27.8242 -5.06407 90.2488
lradius 27.1626
lwrist -28.2511
lhand -18.7701 23.7667
lfingers 7.12502
lthumb 7.5271 -306.387
rfemur -19.5476 8.37036 11.0431
rtibia 35.7843
rfoot -12.7394 -11.6698
rtoes -14.4932
lfemur -10.1985 -3.27465 -14.1528
ltibia 30.2016
lfoot -13.4981 18.4566
ltoes -11.0278
2165
root 0.581435 17.0342 -50.4045 5.04375 -1.72357 -1.94451
lowerback 5.68048 -0.580698 -6.1902
upperback -1.99716 -1.11671 2.88357
thorax -5.114 -0.300566 6.63899
lowerneck -1.28171 -13.5577 -14.987
upperneck 31.4064 -20.3798 7.5119
head 13.1564 -10.1993 2.65513
rclavicle -1.81391e-015 -3.47873e-014
rhumerus -37.3036 13.3455 -81.5251
rradius 43.1336
rwrist -2.86641
rhand -10.3163 -19.2673
rfingers 7.12502
rthumb 15.679 -48.6521
lclavicle -1.81391e-015 -3.47873e-014
lhumerus -27.8052 -5.03723 90.2439
lradius 27.1477
lwrist -28.2686
lhand -18.7959 23.7709
lfingers 7.12502
lthumb 7.50217 -306.382
rfemur -19.581 8.35324 11.0073
rtibia 35.8156
rfoot -12.7483 -11.6562
rtoes -14.5003
lfemur -10.2107 -3.26171 -14.1848
ltibia 30.199
lfoot -13.4897 18.451
ltoes -11.0451
